<?xml version="1.0" standalone="no"?>
 <!DOCTYPE svg PUBLIC "-//W3C//DTD SVG 1.1//EN" 
 "http://www.w3.org/Graphics/SVG/1.1/DTD/svg11.dtd"> 
<svg
  xmlns:svg="http://www.w3.org/2000/svg"
  xmlns="http://www.w3.org/2000/svg"
  xmlns:xlink="http://www.w3.org/1999/xlink"
  version="1.1"
  width="92.2782mm" height="22.7076mm" viewBox="0.0000 0.0000 92.2782 22.7076">
<title>SVG Image created as LM317T.svg date 2025/04/24 09:49:33 </title>
  <desc>Image generated by Eeschema-SVG </desc>
<g style="fill:#000000; fill-opacity:1.0000;stroke:#000000; stroke-opacity:1.0000;
stroke-linecap:round; stroke-linejoin:round;"
 transform="translate(0 0) scale(1 1)">
</g>
<g style="fill:none; 
stroke:#840000; stroke-width:0.1524; stroke-opacity:1; 
stroke-linecap:round; stroke-linejoin:round;">
<rect x="42.079200" y="12.820400" width="10.160000" height="5.080000" rx="0.000000" />
<text x="47.4132" y="15.9954"
textLength="8.3674" font-size="1.6933" lengthAdjust="spacingAndGlyphs"
text-anchor="middle" opacity="0" stroke-opacity="0">LM317T
</text>
<g class="stroked-text"><desc>LM317T
</desc>
<path d="M44.7825 15.9399
L44.1777 15.9399
" />
<path d="M44.1777 15.9399
L44.1777 14.6699
" />
<path d="M45.2058 15.9399
L45.2058 14.6699
" />
<path d="M45.2058 14.6699
L45.6292 15.5771
" />
<path d="M45.6292 15.5771
L46.0525 14.6699
" />
<path d="M46.0525 14.6699
L46.0525 15.9399
" />
<path d="M46.5363 14.6699
L47.3225 14.6699
" />
<path d="M47.3225 14.6699
L46.8991 15.1537
" />
<path d="M46.8991 15.1537
L47.0806 15.1537
" />
<path d="M47.0806 15.1537
L47.2015 15.2142
" />
<path d="M47.2015 15.2142
L47.2620 15.2747
" />
<path d="M47.2620 15.2747
L47.3225 15.3956
" />
<path d="M47.3225 15.3956
L47.3225 15.6980
" />
<path d="M47.3225 15.6980
L47.2620 15.8190
" />
<path d="M47.2620 15.8190
L47.2015 15.8795
" />
<path d="M47.2015 15.8795
L47.0806 15.9399
" />
<path d="M47.0806 15.9399
L46.7177 15.9399
" />
<path d="M46.7177 15.9399
L46.5968 15.8795
" />
<path d="M46.5968 15.8795
L46.5363 15.8190
" />
<path d="M48.5320 15.9399
L47.8063 15.9399
" />
<path d="M48.1691 15.9399
L48.1691 14.6699
" />
<path d="M48.1691 14.6699
L48.0482 14.8514
" />
<path d="M48.0482 14.8514
L47.9272 14.9723
" />
<path d="M47.9272 14.9723
L47.8063 15.0328
" />
<path d="M48.9553 14.6699
L49.8019 14.6699
" />
<path d="M49.8019 14.6699
L49.2577 15.9399
" />
<path d="M50.1043 14.6699
L50.8300 14.6699
" />
<path d="M50.4672 15.9399
L50.4672 14.6699
" />
</g><path d="M42.0792 15.3604
L39.5392 15.3604
" />
</g>
<g style="fill:none; 
stroke:#A90000; stroke-width:0.1524; stroke-opacity:1; 
stroke-linecap:round; stroke-linejoin:round;">
<text x="40.8092" y="15.1064"
textLength="1.4127" font-size="1.6933" lengthAdjust="spacingAndGlyphs"
text-anchor="middle" opacity="0" stroke-opacity="0">3</text>
<g class="stroked-text"><desc>3</desc>
<path d="M40.3859 13.6729
L41.1721 13.6729
" />
<path d="M41.1721 13.6729
L40.7487 14.1567
" />
<path d="M40.7487 14.1567
L40.9302 14.1567
" />
<path d="M40.9302 14.1567
L41.0511 14.2172
" />
<path d="M41.0511 14.2172
L41.1116 14.2777
" />
<path d="M41.1116 14.2777
L41.1721 14.3986
" />
<path d="M41.1721 14.3986
L41.1721 14.7010
" />
<path d="M41.1721 14.7010
L41.1116 14.8220
" />
<path d="M41.1116 14.8220
L41.0511 14.8825
" />
<path d="M41.0511 14.8825
L40.9302 14.9429
" />
<path d="M40.9302 14.9429
L40.5673 14.9429
" />
<path d="M40.5673 14.9429
L40.4464 14.8825
" />
<path d="M40.4464 14.8825
L40.3859 14.8220
" />
</g></g>
<g style="fill:none; 
stroke:#840000; stroke-width:0.1524; stroke-opacity:1; 
stroke-linecap:round; stroke-linejoin:round;">
<path d="M47.1592 17.9004
L47.1592 20.4404
" />
</g>
<g style="fill:none; 
stroke:#A90000; stroke-width:0.1524; stroke-opacity:1; 
stroke-linecap:round; stroke-linejoin:round;">
<g transform="rotate(-90.000000 46.9052 19.1704)">
<text x="46.9052" y="19.1704"
textLength="1.4127" font-size="1.6933" lengthAdjust="spacingAndGlyphs"
text-anchor="middle" opacity="0" stroke-opacity="0">1</text>
</g>
<g class="stroked-text"><desc>1</desc>
<path d="M46.7417 18.8074
L46.7417 19.5331
" />
<path d="M46.7417 19.1703
L45.4717 19.1703
" />
<path d="M45.4717 19.1703
L45.6532 19.2912
" />
<path d="M45.6532 19.2912
L45.7741 19.4122
" />
<path d="M45.7741 19.4122
L45.8346 19.5331
" />
</g></g>
<g style="fill:none; 
stroke:#840000; stroke-width:0.1524; stroke-opacity:1; 
stroke-linecap:round; stroke-linejoin:round;">
<path d="M52.2392 15.3604
L54.7792 15.3604
" />
</g>
<g style="fill:none; 
stroke:#A90000; stroke-width:0.1524; stroke-opacity:1; 
stroke-linecap:round; stroke-linejoin:round;">
<text x="53.5092" y="15.1064"
textLength="1.4127" font-size="1.6933" lengthAdjust="spacingAndGlyphs"
text-anchor="middle" opacity="0" stroke-opacity="0">2</text>
<g class="stroked-text"><desc>2</desc>
<path d="M53.1464 13.7939
L53.2068 13.7334
" />
<path d="M53.2068 13.7334
L53.3278 13.6729
" />
<path d="M53.3278 13.6729
L53.6302 13.6729
" />
<path d="M53.6302 13.6729
L53.7511 13.7334
" />
<path d="M53.7511 13.7334
L53.8116 13.7939
" />
<path d="M53.8116 13.7939
L53.8721 13.9148
" />
<path d="M53.8721 13.9148
L53.8721 14.0358
" />
<path d="M53.8721 14.0358
L53.8116 14.2172
" />
<path d="M53.8116 14.2172
L53.0859 14.9429
" />
<path d="M53.0859 14.9429
L53.8721 14.9429
" />
</g></g>
<g style="fill:none; 
stroke:#006464; stroke-width:0.1524; stroke-opacity:1; 
stroke-linecap:round; stroke-linejoin:round;">
<text x="7.6200" y="-5.7150"
textLength="3.7713" font-size="1.6933" lengthAdjust="spacingAndGlyphs"
text-anchor="middle" opacity="0" stroke-opacity="0">D1?</text>
<g class="stroked-text"><desc>D1?</desc>
<path d="M6.1383 -5.7704
L6.1383 -7.0404
" />
<path d="M6.1383 -7.0404
L6.4407 -7.0404
" />
<path d="M6.4407 -7.0404
L6.6221 -6.9799
" />
<path d="M6.6221 -6.9799
L6.7431 -6.8589
" />
<path d="M6.7431 -6.8589
L6.8036 -6.7380
" />
<path d="M6.8036 -6.7380
L6.8640 -6.4961
" />
<path d="M6.8640 -6.4961
L6.8640 -6.3147
" />
<path d="M6.8640 -6.3147
L6.8036 -6.0728
" />
<path d="M6.8036 -6.0728
L6.7431 -5.9518
" />
<path d="M6.7431 -5.9518
L6.6221 -5.8309
" />
<path d="M6.6221 -5.8309
L6.4407 -5.7704
" />
<path d="M6.4407 -5.7704
L6.1383 -5.7704
" />
<path d="M8.0736 -5.7704
L7.3479 -5.7704
" />
<path d="M7.7107 -5.7704
L7.7107 -7.0404
" />
<path d="M7.7107 -7.0404
L7.5898 -6.8589
" />
<path d="M7.5898 -6.8589
L7.4688 -6.7380
" />
<path d="M7.4688 -6.7380
L7.3479 -6.6775
" />
<path d="M8.7993 -5.8913
L8.8597 -5.8309
" />
<path d="M8.8597 -5.8309
L8.7993 -5.7704
" />
<path d="M8.7993 -5.7704
L8.7388 -5.8309
" />
<path d="M8.7388 -5.8309
L8.7993 -5.8913
" />
<path d="M8.7993 -5.8913
L8.7993 -5.7704
" />
<path d="M8.5574 -6.9799
L8.6783 -7.0404
" />
<path d="M8.6783 -7.0404
L8.9807 -7.0404
" />
<path d="M8.9807 -7.0404
L9.1016 -6.9799
" />
<path d="M9.1016 -6.9799
L9.1621 -6.8589
" />
<path d="M9.1621 -6.8589
L9.1621 -6.7380
" />
<path d="M9.1621 -6.7380
L9.1016 -6.6170
" />
<path d="M9.1016 -6.6170
L9.0412 -6.5566
" />
<path d="M9.0412 -6.5566
L8.9202 -6.4961
" />
<path d="M8.9202 -6.4961
L8.8597 -6.4356
" />
<path d="M8.8597 -6.4356
L8.7993 -6.3147
" />
<path d="M8.7993 -6.3147
L8.7993 -6.2542
" />
</g></g> 
</svg>
