<?xml version="1.0" standalone="no"?>
 <!DOCTYPE svg PUBLIC "-//W3C//DTD SVG 1.1//EN" 
 "http://www.w3.org/Graphics/SVG/1.1/DTD/svg11.dtd"> 
<svg
  xmlns:svg="http://www.w3.org/2000/svg"
  xmlns="http://www.w3.org/2000/svg"
  xmlns:xlink="http://www.w3.org/1999/xlink"
  version="1.1"
  width="228.4476mm" height="1211.5546mm" viewBox="0.0000 0.0000 228.4476 1211.5546">
<title>SVG Image created as LM393P.svg date 2025/04/24 09:47:16 </title>
  <desc>Image generated by Eeschema-SVG </desc>
<g style="fill:#000000; fill-opacity:1.0000;stroke:#000000; stroke-opacity:1.0000;
stroke-linecap:round; stroke-linejoin:round;"
 transform="translate(0 0) scale(1 1)">
</g>
<g style="fill:#FFFFC2; fill-opacity:1.0000; stroke:none;">
<rect x="69.058300" y="103.762200" width="33.020000" height="24.130000" rx="0.000000" />
<path style="fill:none; 
stroke:#840000; stroke-width:0.1524; stroke-opacity:1; 
stroke-linecap:round; stroke-linejoin:round;fill:none"
d="M 76.6783,111.3822
76.6783,119.0022
84.2983,115.1922
Z" /> 
<path style="fill:none; 
stroke:#840000; stroke-width:0.1524; stroke-opacity:1; 
stroke-linecap:round; stroke-linejoin:round;fill:none"
d="M 76.6783,112.6522
69.0583,112.6522
" /> 
<path style="fill:none; 
stroke:#840000; stroke-width:0.1524; stroke-opacity:1; 
stroke-linecap:round; stroke-linejoin:round;fill:none"
d="M 76.6783,117.7322
69.0583,117.7322
" /> 
<path style="fill:none; 
stroke:#840000; stroke-width:0.1524; stroke-opacity:1; 
stroke-linecap:round; stroke-linejoin:round;fill:none"
d="M 77.4403,113.1602
77.9483,113.1602
" /> 
<path style="fill:none; 
stroke:#840000; stroke-width:0.1524; stroke-opacity:1; 
stroke-linecap:round; stroke-linejoin:round;fill:none"
d="M 77.4403,116.9702
77.9483,116.9702
" /> 
<path style="fill:none; 
stroke:#840000; stroke-width:0.1524; stroke-opacity:1; 
stroke-linecap:round; stroke-linejoin:round;fill:none"
d="M 77.6943,116.7162
77.6943,117.2242
" /> 
<path style="fill:none; 
stroke:#840000; stroke-width:0.1524; stroke-opacity:1; 
stroke-linecap:round; stroke-linejoin:round;fill:none"
d="M 84.2983,115.1922
84.2983,110.1122
84.2983,107.5722
69.0583,107.5722
" /> 
<path style="fill:none; 
stroke:#840000; stroke-width:0.1524; stroke-opacity:1; 
stroke-linecap:round; stroke-linejoin:round;fill:none"
d="M 86.8383,120.2722
86.8383,112.6522
102.0783,112.6522
" /> 
<path style="fill:none; 
stroke:#840000; stroke-width:0.1524; stroke-opacity:1; 
stroke-linecap:round; stroke-linejoin:round;fill:none"
d="M 93.1883,118.4942
93.6963,118.4942
" /> 
<path style="fill:none; 
stroke:#840000; stroke-width:0.1524; stroke-opacity:1; 
stroke-linecap:round; stroke-linejoin:round;fill:none"
d="M 93.1883,122.0502
93.6963,122.0502
" /> 
<path style="fill:none; 
stroke:#840000; stroke-width:0.1524; stroke-opacity:1; 
stroke-linecap:round; stroke-linejoin:round;fill:none"
d="M 93.4423,121.7962
93.4423,122.3042
" /> 
<path style="fill:none; 
stroke:#840000; stroke-width:0.1524; stroke-opacity:1; 
stroke-linecap:round; stroke-linejoin:round;fill:none"
d="M 94.4583,124.0822
94.4583,116.4622
86.8383,120.2722
Z" /> 
<path style="fill:none; 
stroke:#840000; stroke-width:0.1524; stroke-opacity:1; 
stroke-linecap:round; stroke-linejoin:round;fill:none"
d="M 102.0783,117.7322
94.4583,117.7322
" /> 
<path style="fill:none; 
stroke:#840000; stroke-width:0.1524; stroke-opacity:1; 
stroke-linecap:round; stroke-linejoin:round;fill:none"
d="M 102.0783,122.8122
94.4583,122.8122
" /> 
</g>
<g style="fill:none; 
stroke:#840000; stroke-width:0.2540; stroke-opacity:1; 
stroke-linecap:round; stroke-linejoin:round;">
<rect x="69.058300" y="103.762200" width="33.020000" height="24.130000" rx="0.000000" />
</g>
<g style="fill:none; 
stroke:#840000; stroke-width:0.1524; stroke-opacity:1; 
stroke-linecap:round; stroke-linejoin:round;">
<path d="M69.0583 107.5722
L63.9783 107.5722
" />
</g>
<g style="fill:none; 
stroke:#006464; stroke-width:0.1524; stroke-opacity:1; 
stroke-linecap:round; stroke-linejoin:round;">
<text x="69.5663" y="108.2072"
textLength="5.0413" font-size="1.6933" lengthAdjust="spacingAndGlyphs"
text-anchor="start" opacity="0" stroke-opacity="0">1OUT</text>
<g class="stroked-text"><desc>1OUT</desc>
<path d="M70.6341 108.1517
L69.9084 108.1517
" />
<path d="M70.2712 108.1517
L70.2712 106.8817
" />
<path d="M70.2712 106.8817
L70.1503 107.0632
" />
<path d="M70.1503 107.0632
L70.0293 107.1841
" />
<path d="M70.0293 107.1841
L69.9084 107.2446
" />
<path d="M71.4202 106.8817
L71.6621 106.8817
" />
<path d="M71.6621 106.8817
L71.7831 106.9422
" />
<path d="M71.7831 106.9422
L71.9040 107.0632
" />
<path d="M71.9040 107.0632
L71.9645 107.3051
" />
<path d="M71.9645 107.3051
L71.9645 107.7284
" />
<path d="M71.9645 107.7284
L71.9040 107.9703
" />
<path d="M71.9040 107.9703
L71.7831 108.0913
" />
<path d="M71.7831 108.0913
L71.6621 108.1517
" />
<path d="M71.6621 108.1517
L71.4202 108.1517
" />
<path d="M71.4202 108.1517
L71.2993 108.0913
" />
<path d="M71.2993 108.0913
L71.1783 107.9703
" />
<path d="M71.1783 107.9703
L71.1179 107.7284
" />
<path d="M71.1179 107.7284
L71.1179 107.3051
" />
<path d="M71.1179 107.3051
L71.1783 107.0632
" />
<path d="M71.1783 107.0632
L71.2993 106.9422
" />
<path d="M71.2993 106.9422
L71.4202 106.8817
" />
<path d="M72.5088 106.8817
L72.5088 107.9098
" />
<path d="M72.5088 107.9098
L72.5693 108.0308
" />
<path d="M72.5693 108.0308
L72.6298 108.0913
" />
<path d="M72.6298 108.0913
L72.7507 108.1517
" />
<path d="M72.7507 108.1517
L72.9926 108.1517
" />
<path d="M72.9926 108.1517
L73.1136 108.0913
" />
<path d="M73.1136 108.0913
L73.1741 108.0308
" />
<path d="M73.1741 108.0308
L73.2345 107.9098
" />
<path d="M73.2345 107.9098
L73.2345 106.8817
" />
<path d="M73.6579 106.8817
L74.3836 106.8817
" />
<path d="M74.0208 108.1517
L74.0208 106.8817
" />
</g></g>
<g style="fill:none; 
stroke:#A90000; stroke-width:0.1524; stroke-opacity:1; 
stroke-linecap:round; stroke-linejoin:round;">
<text x="66.5183" y="107.3182"
textLength="1.4127" font-size="1.6933" lengthAdjust="spacingAndGlyphs"
text-anchor="middle" opacity="0" stroke-opacity="0">1</text>
<g class="stroked-text"><desc>1</desc>
<path d="M66.8812 107.1547
L66.1555 107.1547
" />
<path d="M66.5183 107.1547
L66.5183 105.8847
" />
<path d="M66.5183 105.8847
L66.3974 106.0662
" />
<path d="M66.3974 106.0662
L66.2764 106.1871
" />
<path d="M66.2764 106.1871
L66.1555 106.2476
" />
</g></g>
<g style="fill:none; 
stroke:#840000; stroke-width:0.1524; stroke-opacity:1; 
stroke-linecap:round; stroke-linejoin:round;">
<path d="M69.0583 112.6522
L63.9783 112.6522
" />
</g>
<g style="fill:none; 
stroke:#006464; stroke-width:0.1524; stroke-opacity:1; 
stroke-linecap:round; stroke-linejoin:round;">
<text x="69.5663" y="113.2872"
textLength="4.9204" font-size="1.6933" lengthAdjust="spacingAndGlyphs"
text-anchor="start" opacity="0" stroke-opacity="0">1IN-</text>
<g class="stroked-text"><desc>1IN-</desc>
<path d="M70.6341 113.2317
L69.9084 113.2317
" />
<path d="M70.2712 113.2317
L70.2712 111.9617
" />
<path d="M70.2712 111.9617
L70.1503 112.1432
" />
<path d="M70.1503 112.1432
L70.0293 112.2641
" />
<path d="M70.0293 112.2641
L69.9084 112.3246
" />
<path d="M71.1783 113.2317
L71.1783 111.9617
" />
<path d="M71.7831 113.2317
L71.7831 111.9617
" />
<path d="M71.7831 111.9617
L72.5088 113.2317
" />
<path d="M72.5088 113.2317
L72.5088 111.9617
" />
<path d="M73.1136 112.7479
L74.0813 112.7479
" />
</g></g>
<g style="fill:none; 
stroke:#A90000; stroke-width:0.1524; stroke-opacity:1; 
stroke-linecap:round; stroke-linejoin:round;">
<text x="66.5183" y="112.3982"
textLength="1.4127" font-size="1.6933" lengthAdjust="spacingAndGlyphs"
text-anchor="middle" opacity="0" stroke-opacity="0">2</text>
<g class="stroked-text"><desc>2</desc>
<path d="M66.1555 111.0857
L66.2159 111.0252
" />
<path d="M66.2159 111.0252
L66.3369 110.9647
" />
<path d="M66.3369 110.9647
L66.6393 110.9647
" />
<path d="M66.6393 110.9647
L66.7602 111.0252
" />
<path d="M66.7602 111.0252
L66.8207 111.0857
" />
<path d="M66.8207 111.0857
L66.8812 111.2066
" />
<path d="M66.8812 111.2066
L66.8812 111.3276
" />
<path d="M66.8812 111.3276
L66.8207 111.5090
" />
<path d="M66.8207 111.5090
L66.0950 112.2347
" />
<path d="M66.0950 112.2347
L66.8812 112.2347
" />
</g></g>
<g style="fill:none; 
stroke:#840000; stroke-width:0.1524; stroke-opacity:1; 
stroke-linecap:round; stroke-linejoin:round;">
<path d="M69.0583 117.7322
L63.9783 117.7322
" />
</g>
<g style="fill:none; 
stroke:#006464; stroke-width:0.1524; stroke-opacity:1; 
stroke-linecap:round; stroke-linejoin:round;">
<text x="69.5663" y="118.3672"
textLength="4.9204" font-size="1.6933" lengthAdjust="spacingAndGlyphs"
text-anchor="start" opacity="0" stroke-opacity="0">1IN+</text>
<g class="stroked-text"><desc>1IN+</desc>
<path d="M70.6341 118.3117
L69.9084 118.3117
" />
<path d="M70.2712 118.3117
L70.2712 117.0417
" />
<path d="M70.2712 117.0417
L70.1503 117.2232
" />
<path d="M70.1503 117.2232
L70.0293 117.3441
" />
<path d="M70.0293 117.3441
L69.9084 117.4046
" />
<path d="M71.1783 118.3117
L71.1783 117.0417
" />
<path d="M71.7831 118.3117
L71.7831 117.0417
" />
<path d="M71.7831 117.0417
L72.5088 118.3117
" />
<path d="M72.5088 118.3117
L72.5088 117.0417
" />
<path d="M73.1136 117.8279
L74.0813 117.8279
" />
<path d="M73.5974 118.3117
L73.5974 117.3441
" />
</g></g>
<g style="fill:none; 
stroke:#A90000; stroke-width:0.1524; stroke-opacity:1; 
stroke-linecap:round; stroke-linejoin:round;">
<text x="66.5183" y="117.4782"
textLength="1.4127" font-size="1.6933" lengthAdjust="spacingAndGlyphs"
text-anchor="middle" opacity="0" stroke-opacity="0">3</text>
<g class="stroked-text"><desc>3</desc>
<path d="M66.0950 116.0447
L66.8812 116.0447
" />
<path d="M66.8812 116.0447
L66.4578 116.5285
" />
<path d="M66.4578 116.5285
L66.6393 116.5285
" />
<path d="M66.6393 116.5285
L66.7602 116.5890
" />
<path d="M66.7602 116.5890
L66.8207 116.6495
" />
<path d="M66.8207 116.6495
L66.8812 116.7704
" />
<path d="M66.8812 116.7704
L66.8812 117.0728
" />
<path d="M66.8812 117.0728
L66.8207 117.1938
" />
<path d="M66.8207 117.1938
L66.7602 117.2543
" />
<path d="M66.7602 117.2543
L66.6393 117.3147
" />
<path d="M66.6393 117.3147
L66.2764 117.3147
" />
<path d="M66.2764 117.3147
L66.1555 117.2543
" />
<path d="M66.1555 117.2543
L66.0950 117.1938
" />
</g></g>
<g style="fill:none; 
stroke:#840000; stroke-width:0.1524; stroke-opacity:1; 
stroke-linecap:round; stroke-linejoin:round;">
<path d="M69.0583 122.8122
L63.9783 122.8122
" />
</g>
<g style="fill:none; 
stroke:#006464; stroke-width:0.1524; stroke-opacity:1; 
stroke-linecap:round; stroke-linejoin:round;">
<text x="69.5663" y="123.4472"
textLength="4.0737" font-size="1.6933" lengthAdjust="spacingAndGlyphs"
text-anchor="start" opacity="0" stroke-opacity="0">GND</text>
<g class="stroked-text"><desc>GND</desc>
<path d="M70.6341 122.1822
L70.5131 122.1217
" />
<path d="M70.5131 122.1217
L70.3317 122.1217
" />
<path d="M70.3317 122.1217
L70.1503 122.1822
" />
<path d="M70.1503 122.1822
L70.0293 122.3032
" />
<path d="M70.0293 122.3032
L69.9688 122.4241
" />
<path d="M69.9688 122.4241
L69.9084 122.6660
" />
<path d="M69.9084 122.6660
L69.9084 122.8474
" />
<path d="M69.9084 122.8474
L69.9688 123.0893
" />
<path d="M69.9688 123.0893
L70.0293 123.2103
" />
<path d="M70.0293 123.2103
L70.1503 123.3313
" />
<path d="M70.1503 123.3313
L70.3317 123.3917
" />
<path d="M70.3317 123.3917
L70.4526 123.3917
" />
<path d="M70.4526 123.3917
L70.6341 123.3313
" />
<path d="M70.6341 123.3313
L70.6945 123.2708
" />
<path d="M70.6945 123.2708
L70.6945 122.8474
" />
<path d="M70.6945 122.8474
L70.4526 122.8474
" />
<path d="M71.2388 123.3917
L71.2388 122.1217
" />
<path d="M71.2388 122.1217
L71.9645 123.3917
" />
<path d="M71.9645 123.3917
L71.9645 122.1217
" />
<path d="M72.5693 123.3917
L72.5693 122.1217
" />
<path d="M72.5693 122.1217
L72.8717 122.1217
" />
<path d="M72.8717 122.1217
L73.0531 122.1822
" />
<path d="M73.0531 122.1822
L73.1741 122.3032
" />
<path d="M73.1741 122.3032
L73.2346 122.4241
" />
<path d="M73.2346 122.4241
L73.2950 122.6660
" />
<path d="M73.2950 122.6660
L73.2950 122.8474
" />
<path d="M73.2950 122.8474
L73.2346 123.0893
" />
<path d="M73.2346 123.0893
L73.1741 123.2103
" />
<path d="M73.1741 123.2103
L73.0531 123.3313
" />
<path d="M73.0531 123.3313
L72.8717 123.3917
" />
<path d="M72.8717 123.3917
L72.5693 123.3917
" />
</g></g>
<g style="fill:none; 
stroke:#A90000; stroke-width:0.1524; stroke-opacity:1; 
stroke-linecap:round; stroke-linejoin:round;">
<text x="66.5183" y="122.5582"
textLength="1.4127" font-size="1.6933" lengthAdjust="spacingAndGlyphs"
text-anchor="middle" opacity="0" stroke-opacity="0">4</text>
<g class="stroked-text"><desc>4</desc>
<path d="M66.7602 121.5481
L66.7602 122.3947
" />
<path d="M66.4578 121.0643
L66.1555 121.9714
" />
<path d="M66.1555 121.9714
L66.9416 121.9714
" />
</g></g>
<g style="fill:none; 
stroke:#840000; stroke-width:0.1524; stroke-opacity:1; 
stroke-linecap:round; stroke-linejoin:round;">
<path d="M102.0783 107.5722
L107.1583 107.5722
" />
</g>
<g style="fill:none; 
stroke:#006464; stroke-width:0.1524; stroke-opacity:1; 
stroke-linecap:round; stroke-linejoin:round;">
<text x="101.5703" y="108.2072"
textLength="3.8318" font-size="1.6933" lengthAdjust="spacingAndGlyphs"
text-anchor="end" opacity="0" stroke-opacity="0">VCC</text>
<g class="stroked-text"><desc>VCC</desc>
<path d="M97.9624 106.8817
L98.3857 108.1517
" />
<path d="M98.3857 108.1517
L98.8091 106.8817
" />
<path d="M99.9581 108.0308
L99.8977 108.0913
" />
<path d="M99.8977 108.0913
L99.7162 108.1517
" />
<path d="M99.7162 108.1517
L99.5953 108.1517
" />
<path d="M99.5953 108.1517
L99.4139 108.0913
" />
<path d="M99.4139 108.0913
L99.2929 107.9703
" />
<path d="M99.2929 107.9703
L99.2324 107.8493
" />
<path d="M99.2324 107.8493
L99.1720 107.6074
" />
<path d="M99.1720 107.6074
L99.1720 107.4260
" />
<path d="M99.1720 107.4260
L99.2324 107.1841
" />
<path d="M99.2324 107.1841
L99.2929 107.0632
" />
<path d="M99.2929 107.0632
L99.4139 106.9422
" />
<path d="M99.4139 106.9422
L99.5953 106.8817
" />
<path d="M99.5953 106.8817
L99.7162 106.8817
" />
<path d="M99.7162 106.8817
L99.8977 106.9422
" />
<path d="M99.8977 106.9422
L99.9581 107.0027
" />
<path d="M101.2281 108.0308
L101.1677 108.0913
" />
<path d="M101.1677 108.0913
L100.9862 108.1517
" />
<path d="M100.9862 108.1517
L100.8653 108.1517
" />
<path d="M100.8653 108.1517
L100.6839 108.0913
" />
<path d="M100.6839 108.0913
L100.5629 107.9703
" />
<path d="M100.5629 107.9703
L100.5024 107.8493
" />
<path d="M100.5024 107.8493
L100.4420 107.6074
" />
<path d="M100.4420 107.6074
L100.4420 107.4260
" />
<path d="M100.4420 107.4260
L100.5024 107.1841
" />
<path d="M100.5024 107.1841
L100.5629 107.0632
" />
<path d="M100.5629 107.0632
L100.6839 106.9422
" />
<path d="M100.6839 106.9422
L100.8653 106.8817
" />
<path d="M100.8653 106.8817
L100.9862 106.8817
" />
<path d="M100.9862 106.8817
L101.1677 106.9422
" />
<path d="M101.1677 106.9422
L101.2281 107.0027
" />
</g></g>
<g style="fill:none; 
stroke:#A90000; stroke-width:0.1524; stroke-opacity:1; 
stroke-linecap:round; stroke-linejoin:round;">
<text x="104.6183" y="107.3182"
textLength="1.4127" font-size="1.6933" lengthAdjust="spacingAndGlyphs"
text-anchor="middle" opacity="0" stroke-opacity="0">8</text>
<g class="stroked-text"><desc>8</desc>
<path d="M104.4974 106.4290
L104.3764 106.3685
" />
<path d="M104.3764 106.3685
L104.3159 106.3081
" />
<path d="M104.3159 106.3081
L104.2555 106.1871
" />
<path d="M104.2555 106.1871
L104.2555 106.1266
" />
<path d="M104.2555 106.1266
L104.3159 106.0057
" />
<path d="M104.3159 106.0057
L104.3764 105.9452
" />
<path d="M104.3764 105.9452
L104.4974 105.8847
" />
<path d="M104.4974 105.8847
L104.7393 105.8847
" />
<path d="M104.7393 105.8847
L104.8602 105.9452
" />
<path d="M104.8602 105.9452
L104.9207 106.0057
" />
<path d="M104.9207 106.0057
L104.9812 106.1266
" />
<path d="M104.9812 106.1266
L104.9812 106.1871
" />
<path d="M104.9812 106.1871
L104.9207 106.3081
" />
<path d="M104.9207 106.3081
L104.8602 106.3685
" />
<path d="M104.8602 106.3685
L104.7393 106.4290
" />
<path d="M104.7393 106.4290
L104.4974 106.4290
" />
<path d="M104.4974 106.4290
L104.3764 106.4895
" />
<path d="M104.3764 106.4895
L104.3159 106.5500
" />
<path d="M104.3159 106.5500
L104.2555 106.6709
" />
<path d="M104.2555 106.6709
L104.2555 106.9128
" />
<path d="M104.2555 106.9128
L104.3159 107.0338
" />
<path d="M104.3159 107.0338
L104.3764 107.0943
" />
<path d="M104.3764 107.0943
L104.4974 107.1547
" />
<path d="M104.4974 107.1547
L104.7393 107.1547
" />
<path d="M104.7393 107.1547
L104.8602 107.0943
" />
<path d="M104.8602 107.0943
L104.9207 107.0338
" />
<path d="M104.9207 107.0338
L104.9812 106.9128
" />
<path d="M104.9812 106.9128
L104.9812 106.6709
" />
<path d="M104.9812 106.6709
L104.9207 106.5500
" />
<path d="M104.9207 106.5500
L104.8602 106.4895
" />
<path d="M104.8602 106.4895
L104.7393 106.4290
" />
</g></g>
<g style="fill:none; 
stroke:#840000; stroke-width:0.1524; stroke-opacity:1; 
stroke-linecap:round; stroke-linejoin:round;">
<path d="M102.0783 112.6522
L107.1583 112.6522
" />
</g>
<g style="fill:none; 
stroke:#006464; stroke-width:0.1524; stroke-opacity:1; 
stroke-linecap:round; stroke-linejoin:round;">
<text x="101.5703" y="113.2872"
textLength="5.0413" font-size="1.6933" lengthAdjust="spacingAndGlyphs"
text-anchor="end" opacity="0" stroke-opacity="0">2OUT</text>
<g class="stroked-text"><desc>2OUT</desc>
<path d="M96.8739 112.0827
L96.9343 112.0222
" />
<path d="M96.9343 112.0222
L97.0553 111.9617
" />
<path d="M97.0553 111.9617
L97.3577 111.9617
" />
<path d="M97.3577 111.9617
L97.4786 112.0222
" />
<path d="M97.4786 112.0222
L97.5391 112.0827
" />
<path d="M97.5391 112.0827
L97.5996 112.2036
" />
<path d="M97.5996 112.2036
L97.5996 112.3246
" />
<path d="M97.5996 112.3246
L97.5391 112.5060
" />
<path d="M97.5391 112.5060
L96.8134 113.2317
" />
<path d="M96.8134 113.2317
L97.5996 113.2317
" />
<path d="M98.3857 111.9617
L98.6276 111.9617
" />
<path d="M98.6276 111.9617
L98.7486 112.0222
" />
<path d="M98.7486 112.0222
L98.8695 112.1432
" />
<path d="M98.8695 112.1432
L98.9300 112.3851
" />
<path d="M98.9300 112.3851
L98.9300 112.8084
" />
<path d="M98.9300 112.8084
L98.8695 113.0503
" />
<path d="M98.8695 113.0503
L98.7486 113.1713
" />
<path d="M98.7486 113.1713
L98.6276 113.2317
" />
<path d="M98.6276 113.2317
L98.3857 113.2317
" />
<path d="M98.3857 113.2317
L98.2648 113.1713
" />
<path d="M98.2648 113.1713
L98.1438 113.0503
" />
<path d="M98.1438 113.0503
L98.0834 112.8084
" />
<path d="M98.0834 112.8084
L98.0834 112.3851
" />
<path d="M98.0834 112.3851
L98.1438 112.1432
" />
<path d="M98.1438 112.1432
L98.2648 112.0222
" />
<path d="M98.2648 112.0222
L98.3857 111.9617
" />
<path d="M99.4743 111.9617
L99.4743 112.9898
" />
<path d="M99.4743 112.9898
L99.5348 113.1108
" />
<path d="M99.5348 113.1108
L99.5953 113.1713
" />
<path d="M99.5953 113.1713
L99.7162 113.2317
" />
<path d="M99.7162 113.2317
L99.9581 113.2317
" />
<path d="M99.9581 113.2317
L100.0791 113.1713
" />
<path d="M100.0791 113.1713
L100.1396 113.1108
" />
<path d="M100.1396 113.1108
L100.2000 112.9898
" />
<path d="M100.2000 112.9898
L100.2000 111.9617
" />
<path d="M100.6234 111.9617
L101.3491 111.9617
" />
<path d="M100.9863 113.2317
L100.9863 111.9617
" />
</g></g>
<g style="fill:none; 
stroke:#A90000; stroke-width:0.1524; stroke-opacity:1; 
stroke-linecap:round; stroke-linejoin:round;">
<text x="104.6183" y="112.3982"
textLength="1.4127" font-size="1.6933" lengthAdjust="spacingAndGlyphs"
text-anchor="middle" opacity="0" stroke-opacity="0">7</text>
<g class="stroked-text"><desc>7</desc>
<path d="M104.1950 110.9647
L105.0416 110.9647
" />
<path d="M105.0416 110.9647
L104.4974 112.2347
" />
</g></g>
<g style="fill:none; 
stroke:#840000; stroke-width:0.1524; stroke-opacity:1; 
stroke-linecap:round; stroke-linejoin:round;">
<path d="M102.0783 117.7322
L107.1583 117.7322
" />
</g>
<g style="fill:none; 
stroke:#006464; stroke-width:0.1524; stroke-opacity:1; 
stroke-linecap:round; stroke-linejoin:round;">
<text x="101.5703" y="118.3672"
textLength="4.9204" font-size="1.6933" lengthAdjust="spacingAndGlyphs"
text-anchor="end" opacity="0" stroke-opacity="0">2IN-</text>
<g class="stroked-text"><desc>2IN-</desc>
<path d="M96.9948 117.1627
L97.0552 117.1022
" />
<path d="M97.0552 117.1022
L97.1762 117.0417
" />
<path d="M97.1762 117.0417
L97.4786 117.0417
" />
<path d="M97.4786 117.0417
L97.5995 117.1022
" />
<path d="M97.5995 117.1022
L97.6600 117.1627
" />
<path d="M97.6600 117.1627
L97.7205 117.2836
" />
<path d="M97.7205 117.2836
L97.7205 117.4046
" />
<path d="M97.7205 117.4046
L97.6600 117.5860
" />
<path d="M97.6600 117.5860
L96.9343 118.3117
" />
<path d="M96.9343 118.3117
L97.7205 118.3117
" />
<path d="M98.2647 118.3117
L98.2647 117.0417
" />
<path d="M98.8695 118.3117
L98.8695 117.0417
" />
<path d="M98.8695 117.0417
L99.5952 118.3117
" />
<path d="M99.5952 118.3117
L99.5952 117.0417
" />
<path d="M100.2000 117.8279
L101.1677 117.8279
" />
</g></g>
<g style="fill:none; 
stroke:#A90000; stroke-width:0.1524; stroke-opacity:1; 
stroke-linecap:round; stroke-linejoin:round;">
<text x="104.6183" y="117.4782"
textLength="1.4127" font-size="1.6933" lengthAdjust="spacingAndGlyphs"
text-anchor="middle" opacity="0" stroke-opacity="0">6</text>
<g class="stroked-text"><desc>6</desc>
<path d="M104.8602 116.0447
L104.6183 116.0447
" />
<path d="M104.6183 116.0447
L104.4974 116.1052
" />
<path d="M104.4974 116.1052
L104.4369 116.1657
" />
<path d="M104.4369 116.1657
L104.3159 116.3471
" />
<path d="M104.3159 116.3471
L104.2555 116.5890
" />
<path d="M104.2555 116.5890
L104.2555 117.0728
" />
<path d="M104.2555 117.0728
L104.3159 117.1938
" />
<path d="M104.3159 117.1938
L104.3764 117.2543
" />
<path d="M104.3764 117.2543
L104.4974 117.3147
" />
<path d="M104.4974 117.3147
L104.7393 117.3147
" />
<path d="M104.7393 117.3147
L104.8602 117.2543
" />
<path d="M104.8602 117.2543
L104.9207 117.1938
" />
<path d="M104.9207 117.1938
L104.9812 117.0728
" />
<path d="M104.9812 117.0728
L104.9812 116.7704
" />
<path d="M104.9812 116.7704
L104.9207 116.6495
" />
<path d="M104.9207 116.6495
L104.8602 116.5890
" />
<path d="M104.8602 116.5890
L104.7393 116.5285
" />
<path d="M104.7393 116.5285
L104.4974 116.5285
" />
<path d="M104.4974 116.5285
L104.3764 116.5890
" />
<path d="M104.3764 116.5890
L104.3159 116.6495
" />
<path d="M104.3159 116.6495
L104.2555 116.7704
" />
</g></g>
<g style="fill:none; 
stroke:#840000; stroke-width:0.1524; stroke-opacity:1; 
stroke-linecap:round; stroke-linejoin:round;">
<path d="M102.0783 122.8122
L107.1583 122.8122
" />
</g>
<g style="fill:none; 
stroke:#006464; stroke-width:0.1524; stroke-opacity:1; 
stroke-linecap:round; stroke-linejoin:round;">
<text x="101.5703" y="123.4472"
textLength="4.9204" font-size="1.6933" lengthAdjust="spacingAndGlyphs"
text-anchor="end" opacity="0" stroke-opacity="0">2IN+</text>
<g class="stroked-text"><desc>2IN+</desc>
<path d="M96.9948 122.2427
L97.0552 122.1822
" />
<path d="M97.0552 122.1822
L97.1762 122.1217
" />
<path d="M97.1762 122.1217
L97.4786 122.1217
" />
<path d="M97.4786 122.1217
L97.5995 122.1822
" />
<path d="M97.5995 122.1822
L97.6600 122.2427
" />
<path d="M97.6600 122.2427
L97.7205 122.3636
" />
<path d="M97.7205 122.3636
L97.7205 122.4846
" />
<path d="M97.7205 122.4846
L97.6600 122.6660
" />
<path d="M97.6600 122.6660
L96.9343 123.3917
" />
<path d="M96.9343 123.3917
L97.7205 123.3917
" />
<path d="M98.2647 123.3917
L98.2647 122.1217
" />
<path d="M98.8695 123.3917
L98.8695 122.1217
" />
<path d="M98.8695 122.1217
L99.5952 123.3917
" />
<path d="M99.5952 123.3917
L99.5952 122.1217
" />
<path d="M100.2000 122.9079
L101.1677 122.9079
" />
<path d="M100.6838 123.3917
L100.6838 122.4241
" />
</g></g>
<g style="fill:none; 
stroke:#A90000; stroke-width:0.1524; stroke-opacity:1; 
stroke-linecap:round; stroke-linejoin:round;">
<text x="104.6183" y="122.5582"
textLength="1.4127" font-size="1.6933" lengthAdjust="spacingAndGlyphs"
text-anchor="middle" opacity="0" stroke-opacity="0">5</text>
<g class="stroked-text"><desc>5</desc>
<path d="M104.9207 121.1247
L104.3159 121.1247
" />
<path d="M104.3159 121.1247
L104.2555 121.7295
" />
<path d="M104.2555 121.7295
L104.3159 121.6690
" />
<path d="M104.3159 121.6690
L104.4369 121.6085
" />
<path d="M104.4369 121.6085
L104.7393 121.6085
" />
<path d="M104.7393 121.6085
L104.8602 121.6690
" />
<path d="M104.8602 121.6690
L104.9207 121.7295
" />
<path d="M104.9207 121.7295
L104.9812 121.8504
" />
<path d="M104.9812 121.8504
L104.9812 122.1528
" />
<path d="M104.9812 122.1528
L104.9207 122.2738
" />
<path d="M104.9207 122.2738
L104.8602 122.3343
" />
<path d="M104.8602 122.3343
L104.7393 122.3947
" />
<path d="M104.7393 122.3947
L104.4369 122.3947
" />
<path d="M104.4369 122.3947
L104.3159 122.3343
" />
<path d="M104.3159 122.3343
L104.2555 122.2738
" />
</g></g>
<g style="fill:none; 
stroke:#006464; stroke-width:0.1524; stroke-opacity:1; 
stroke-linecap:round; stroke-linejoin:round;">
<text x="16.5100" y="19.6850"
textLength="4.3761" font-size="1.6933" lengthAdjust="spacingAndGlyphs"
text-anchor="middle" opacity="0" stroke-opacity="0">IC1?</text>
<g class="stroked-text"><desc>IC1?</desc>
<path d="M14.7259 19.6295
L14.7259 18.3595
" />
<path d="M16.0564 19.5086
L15.9960 19.5691
" />
<path d="M15.9960 19.5691
L15.8145 19.6295
" />
<path d="M15.8145 19.6295
L15.6936 19.6295
" />
<path d="M15.6936 19.6295
L15.5122 19.5691
" />
<path d="M15.5122 19.5691
L15.3912 19.4481
" />
<path d="M15.3912 19.4481
L15.3307 19.3271
" />
<path d="M15.3307 19.3271
L15.2703 19.0852
" />
<path d="M15.2703 19.0852
L15.2703 18.9038
" />
<path d="M15.2703 18.9038
L15.3307 18.6619
" />
<path d="M15.3307 18.6619
L15.3912 18.5410
" />
<path d="M15.3912 18.5410
L15.5122 18.4200
" />
<path d="M15.5122 18.4200
L15.6936 18.3595
" />
<path d="M15.6936 18.3595
L15.8145 18.3595
" />
<path d="M15.8145 18.3595
L15.9960 18.4200
" />
<path d="M15.9960 18.4200
L16.0564 18.4805
" />
<path d="M17.2660 19.6295
L16.5403 19.6295
" />
<path d="M16.9031 19.6295
L16.9031 18.3595
" />
<path d="M16.9031 18.3595
L16.7822 18.5410
" />
<path d="M16.7822 18.5410
L16.6612 18.6619
" />
<path d="M16.6612 18.6619
L16.5403 18.7224
" />
<path d="M17.9917 19.5086
L18.0521 19.5691
" />
<path d="M18.0521 19.5691
L17.9917 19.6295
" />
<path d="M17.9917 19.6295
L17.9312 19.5691
" />
<path d="M17.9312 19.5691
L17.9917 19.5086
" />
<path d="M17.9917 19.5086
L17.9917 19.6295
" />
<path d="M17.7498 18.4200
L17.8707 18.3595
" />
<path d="M17.8707 18.3595
L18.1731 18.3595
" />
<path d="M18.1731 18.3595
L18.2940 18.4200
" />
<path d="M18.2940 18.4200
L18.3545 18.5410
" />
<path d="M18.3545 18.5410
L18.3545 18.6619
" />
<path d="M18.3545 18.6619
L18.2940 18.7829
" />
<path d="M18.2940 18.7829
L18.2336 18.8433
" />
<path d="M18.2336 18.8433
L18.1126 18.9038
" />
<path d="M18.1126 18.9038
L18.0521 18.9643
" />
<path d="M18.0521 18.9643
L17.9917 19.0852
" />
<path d="M17.9917 19.0852
L17.9917 19.1457
" />
</g><text x="16.5100" y="17.1450"
textLength="7.5812" font-size="1.6933" lengthAdjust="spacingAndGlyphs"
text-anchor="middle" opacity="0" stroke-opacity="0">LM393P</text>
<g class="stroked-text"><desc>LM393P</desc>
<path d="M13.7281 17.0895
L13.1233 17.0895
" />
<path d="M13.1233 17.0895
L13.1233 15.8195
" />
<path d="M14.1514 17.0895
L14.1514 15.8195
" />
<path d="M14.1514 15.8195
L14.5748 16.7267
" />
<path d="M14.5748 16.7267
L14.9981 15.8195
" />
<path d="M14.9981 15.8195
L14.9981 17.0895
" />
<path d="M15.4819 15.8195
L16.2681 15.8195
" />
<path d="M16.2681 15.8195
L15.8447 16.3033
" />
<path d="M15.8447 16.3033
L16.0262 16.3033
" />
<path d="M16.0262 16.3033
L16.1471 16.3638
" />
<path d="M16.1471 16.3638
L16.2076 16.4243
" />
<path d="M16.2076 16.4243
L16.2681 16.5452
" />
<path d="M16.2681 16.5452
L16.2681 16.8476
" />
<path d="M16.2681 16.8476
L16.2076 16.9686
" />
<path d="M16.2076 16.9686
L16.1471 17.0291
" />
<path d="M16.1471 17.0291
L16.0262 17.0895
" />
<path d="M16.0262 17.0895
L15.6633 17.0895
" />
<path d="M15.6633 17.0895
L15.5424 17.0291
" />
<path d="M15.5424 17.0291
L15.4819 16.9686
" />
<path d="M16.8728 17.0895
L17.1147 17.0895
" />
<path d="M17.1147 17.0895
L17.2357 17.0291
" />
<path d="M17.2357 17.0291
L17.2961 16.9686
" />
<path d="M17.2961 16.9686
L17.4171 16.7871
" />
<path d="M17.4171 16.7871
L17.4776 16.5452
" />
<path d="M17.4776 16.5452
L17.4776 16.0614
" />
<path d="M17.4776 16.0614
L17.4171 15.9405
" />
<path d="M17.4171 15.9405
L17.3566 15.8800
" />
<path d="M17.3566 15.8800
L17.2357 15.8195
" />
<path d="M17.2357 15.8195
L16.9938 15.8195
" />
<path d="M16.9938 15.8195
L16.8728 15.8800
" />
<path d="M16.8728 15.8800
L16.8123 15.9405
" />
<path d="M16.8123 15.9405
L16.7519 16.0614
" />
<path d="M16.7519 16.0614
L16.7519 16.3638
" />
<path d="M16.7519 16.3638
L16.8123 16.4848
" />
<path d="M16.8123 16.4848
L16.8728 16.5452
" />
<path d="M16.8728 16.5452
L16.9938 16.6057
" />
<path d="M16.9938 16.6057
L17.2357 16.6057
" />
<path d="M17.2357 16.6057
L17.3566 16.5452
" />
<path d="M17.3566 16.5452
L17.4171 16.4848
" />
<path d="M17.4171 16.4848
L17.4776 16.3638
" />
<path d="M17.9009 15.8195
L18.6871 15.8195
" />
<path d="M18.6871 15.8195
L18.2637 16.3033
" />
<path d="M18.2637 16.3033
L18.4452 16.3033
" />
<path d="M18.4452 16.3033
L18.5661 16.3638
" />
<path d="M18.5661 16.3638
L18.6266 16.4243
" />
<path d="M18.6266 16.4243
L18.6871 16.5452
" />
<path d="M18.6871 16.5452
L18.6871 16.8476
" />
<path d="M18.6871 16.8476
L18.6266 16.9686
" />
<path d="M18.6266 16.9686
L18.5661 17.0291
" />
<path d="M18.5661 17.0291
L18.4452 17.0895
" />
<path d="M18.4452 17.0895
L18.0823 17.0895
" />
<path d="M18.0823 17.0895
L17.9614 17.0291
" />
<path d="M17.9614 17.0291
L17.9009 16.9686
" />
<path d="M19.2313 17.0895
L19.2313 15.8195
" />
<path d="M19.2313 15.8195
L19.7151 15.8195
" />
<path d="M19.7151 15.8195
L19.8361 15.8800
" />
<path d="M19.8361 15.8800
L19.8966 15.9405
" />
<path d="M19.8966 15.9405
L19.9570 16.0614
" />
<path d="M19.9570 16.0614
L19.9570 16.2429
" />
<path d="M19.9570 16.2429
L19.8966 16.3638
" />
<path d="M19.8966 16.3638
L19.8361 16.4243
" />
<path d="M19.8361 16.4243
L19.7151 16.4848
" />
<path d="M19.7151 16.4848
L19.2313 16.4848
" />
</g></g> 
</svg>
