<?xml version="1.0" standalone="no"?>
 <!DOCTYPE svg PUBLIC "-//W3C//DTD SVG 1.1//EN" 
 "http://www.w3.org/Graphics/SVG/1.1/DTD/svg11.dtd"> 
<svg
  xmlns:svg="http://www.w3.org/2000/svg"
  xmlns="http://www.w3.org/2000/svg"
  xmlns:xlink="http://www.w3.org/1999/xlink"
  version="1.1"
  width="62.4586mm" height="37.4904mm" viewBox="0.0000 0.0000 62.4586 37.4904">
<title>SVG Image created as NE555.svg date 2025/04/24 09:45:20 </title>
  <desc>Image generated by Eeschema-SVG </desc>
<g style="fill:#000000; fill-opacity:1.0000;stroke:#000000; stroke-opacity:1.0000;
stroke-linecap:round; stroke-linejoin:round;"
 transform="translate(0 0) scale(1 1)">
</g>
<g style="fill:#FFFFC2; fill-opacity:1.0000; stroke:none;">
<rect x="31.230000" y="8.585300" width="20.320000" height="20.320000" rx="0.000000" />
</g>
<g style="fill:none; 
stroke:#840000; stroke-width:0.1524; stroke-opacity:1; 
stroke-linecap:round; stroke-linejoin:round;">
<rect x="31.230000" y="8.585300" width="20.320000" height="20.320000" rx="0.000000" />
<text x="41.6440" y="10.9983"
textLength="7.3998" font-size="1.6933" lengthAdjust="spacingAndGlyphs"
text-anchor="middle" opacity="0" stroke-opacity="0">NE555
</text>
<g class="stroked-text"><desc>NE555
</desc>
<path d="M38.8923 10.9428
L38.8923 9.6728
" />
<path d="M38.8923 9.6728
L39.6180 10.9428
" />
<path d="M39.6180 10.9428
L39.6180 9.6728
" />
<path d="M40.2228 10.2776
L40.6462 10.2776
" />
<path d="M40.8276 10.9428
L40.2228 10.9428
" />
<path d="M40.2228 10.9428
L40.2228 9.6728
" />
<path d="M40.2228 9.6728
L40.8276 9.6728
" />
<path d="M41.9766 9.6728
L41.3718 9.6728
" />
<path d="M41.3718 9.6728
L41.3114 10.2776
" />
<path d="M41.3114 10.2776
L41.3718 10.2171
" />
<path d="M41.3718 10.2171
L41.4928 10.1566
" />
<path d="M41.4928 10.1566
L41.7952 10.1566
" />
<path d="M41.7952 10.1566
L41.9161 10.2171
" />
<path d="M41.9161 10.2171
L41.9766 10.2776
" />
<path d="M41.9766 10.2776
L42.0371 10.3985
" />
<path d="M42.0371 10.3985
L42.0371 10.7009
" />
<path d="M42.0371 10.7009
L41.9766 10.8219
" />
<path d="M41.9766 10.8219
L41.9161 10.8824
" />
<path d="M41.9161 10.8824
L41.7952 10.9428
" />
<path d="M41.7952 10.9428
L41.4928 10.9428
" />
<path d="M41.4928 10.9428
L41.3718 10.8824
" />
<path d="M41.3718 10.8824
L41.3114 10.8219
" />
<path d="M43.1861 9.6728
L42.5813 9.6728
" />
<path d="M42.5813 9.6728
L42.5209 10.2776
" />
<path d="M42.5209 10.2776
L42.5813 10.2171
" />
<path d="M42.5813 10.2171
L42.7023 10.1566
" />
<path d="M42.7023 10.1566
L43.0047 10.1566
" />
<path d="M43.0047 10.1566
L43.1256 10.2171
" />
<path d="M43.1256 10.2171
L43.1861 10.2776
" />
<path d="M43.1861 10.2776
L43.2466 10.3985
" />
<path d="M43.2466 10.3985
L43.2466 10.7009
" />
<path d="M43.2466 10.7009
L43.1861 10.8219
" />
<path d="M43.1861 10.8219
L43.1256 10.8824
" />
<path d="M43.1256 10.8824
L43.0047 10.9428
" />
<path d="M43.0047 10.9428
L42.7023 10.9428
" />
<path d="M42.7023 10.9428
L42.5813 10.8824
" />
<path d="M42.5813 10.8824
L42.5209 10.8219
" />
<path d="M44.3956 9.6728
L43.7908 9.6728
" />
<path d="M43.7908 9.6728
L43.7304 10.2776
" />
<path d="M43.7304 10.2776
L43.7908 10.2171
" />
<path d="M43.7908 10.2171
L43.9118 10.1566
" />
<path d="M43.9118 10.1566
L44.2142 10.1566
" />
<path d="M44.2142 10.1566
L44.3351 10.2171
" />
<path d="M44.3351 10.2171
L44.3956 10.2776
" />
<path d="M44.3956 10.2776
L44.4561 10.3985
" />
<path d="M44.4561 10.3985
L44.4561 10.7009
" />
<path d="M44.4561 10.7009
L44.3956 10.8219
" />
<path d="M44.3956 10.8219
L44.3351 10.8824
" />
<path d="M44.3351 10.8824
L44.2142 10.9428
" />
<path d="M44.2142 10.9428
L43.9118 10.9428
" />
<path d="M43.9118 10.9428
L43.7908 10.8824
" />
<path d="M43.7908 10.8824
L43.7304 10.8219
" />
</g><rect x="31.230000" y="8.585300" width="20.320000" height="20.320000" rx="0.000000" />
<rect x="0.000000" y="0.000000" width="20.320000" height="20.320000" rx="0.000000" />
<path d="M31.2300 13.6653
L26.1500 13.6653
" />
</g>
<g style="fill:none; 
stroke:#A90000; stroke-width:0.1524; stroke-opacity:1; 
stroke-linecap:round; stroke-linejoin:round;">
<text x="28.6900" y="13.4113"
textLength="1.4127" font-size="1.6933" lengthAdjust="spacingAndGlyphs"
text-anchor="middle" opacity="0" stroke-opacity="0">6</text>
<g class="stroked-text"><desc>6</desc>
<path d="M28.9319 11.9778
L28.6900 11.9778
" />
<path d="M28.6900 11.9778
L28.5691 12.0383
" />
<path d="M28.5691 12.0383
L28.5086 12.0988
" />
<path d="M28.5086 12.0988
L28.3876 12.2802
" />
<path d="M28.3876 12.2802
L28.3272 12.5221
" />
<path d="M28.3272 12.5221
L28.3272 13.0059
" />
<path d="M28.3272 13.0059
L28.3876 13.1269
" />
<path d="M28.3876 13.1269
L28.4481 13.1874
" />
<path d="M28.4481 13.1874
L28.5691 13.2478
" />
<path d="M28.5691 13.2478
L28.8110 13.2478
" />
<path d="M28.8110 13.2478
L28.9319 13.1874
" />
<path d="M28.9319 13.1874
L28.9924 13.1269
" />
<path d="M28.9924 13.1269
L29.0529 13.0059
" />
<path d="M29.0529 13.0059
L29.0529 12.7035
" />
<path d="M29.0529 12.7035
L28.9924 12.5826
" />
<path d="M28.9924 12.5826
L28.9319 12.5221
" />
<path d="M28.9319 12.5221
L28.8110 12.4616
" />
<path d="M28.8110 12.4616
L28.5691 12.4616
" />
<path d="M28.5691 12.4616
L28.4481 12.5221
" />
<path d="M28.4481 12.5221
L28.3876 12.5826
" />
<path d="M28.3876 12.5826
L28.3272 12.7035
" />
</g></g>
<g style="fill:none; 
stroke:#840000; stroke-width:0.1524; stroke-opacity:1; 
stroke-linecap:round; stroke-linejoin:round;">
<path d="M31.2300 18.7453
L26.1500 18.7453
" />
</g>
<g style="fill:none; 
stroke:#A90000; stroke-width:0.1524; stroke-opacity:1; 
stroke-linecap:round; stroke-linejoin:round;">
<text x="28.6900" y="18.4913"
textLength="1.4127" font-size="1.6933" lengthAdjust="spacingAndGlyphs"
text-anchor="middle" opacity="0" stroke-opacity="0">2</text>
<g class="stroked-text"><desc>2</desc>
<path d="M28.3272 17.1788
L28.3876 17.1183
" />
<path d="M28.3876 17.1183
L28.5086 17.0578
" />
<path d="M28.5086 17.0578
L28.8110 17.0578
" />
<path d="M28.8110 17.0578
L28.9319 17.1183
" />
<path d="M28.9319 17.1183
L28.9924 17.1788
" />
<path d="M28.9924 17.1788
L29.0529 17.2997
" />
<path d="M29.0529 17.2997
L29.0529 17.4207
" />
<path d="M29.0529 17.4207
L28.9924 17.6021
" />
<path d="M28.9924 17.6021
L28.2667 18.3278
" />
<path d="M28.2667 18.3278
L29.0529 18.3278
" />
</g></g>
<g style="fill:none; 
stroke:#840000; stroke-width:0.1524; stroke-opacity:1; 
stroke-linecap:round; stroke-linejoin:round;">
<path d="M31.2300 23.8253
L26.1500 23.8253
" />
</g>
<g style="fill:none; 
stroke:#A90000; stroke-width:0.1524; stroke-opacity:1; 
stroke-linecap:round; stroke-linejoin:round;">
<text x="28.6900" y="23.5713"
textLength="1.4127" font-size="1.6933" lengthAdjust="spacingAndGlyphs"
text-anchor="middle" opacity="0" stroke-opacity="0">7</text>
<g class="stroked-text"><desc>7</desc>
<path d="M28.2667 22.1378
L29.1133 22.1378
" />
<path d="M29.1133 22.1378
L28.5691 23.4078
" />
</g></g>
<g style="fill:none; 
stroke:#840000; stroke-width:0.1524; stroke-opacity:1; 
stroke-linecap:round; stroke-linejoin:round;">
<path d="M38.8500 8.5853
L38.8500 3.5053
" />
</g>
<g style="fill:none; 
stroke:#A90000; stroke-width:0.1524; stroke-opacity:1; 
stroke-linecap:round; stroke-linejoin:round;">
<g transform="rotate(-90.000000 38.5960 6.0453)">
<text x="38.5960" y="6.0453"
textLength="1.4127" font-size="1.6933" lengthAdjust="spacingAndGlyphs"
text-anchor="middle" opacity="0" stroke-opacity="0">4</text>
</g>
<g class="stroked-text"><desc>4</desc>
<path d="M37.5859 5.8033
L38.4325 5.8033
" />
<path d="M37.1021 6.1057
L38.0092 6.4080
" />
<path d="M38.0092 6.4080
L38.0092 5.6219
" />
</g></g>
<g style="fill:none; 
stroke:#840000; stroke-width:0.1524; stroke-opacity:1; 
stroke-linecap:round; stroke-linejoin:round;">
<path d="M41.3900 28.9053
L41.3900 33.9853
" />
</g>
<g style="fill:none; 
stroke:#A90000; stroke-width:0.1524; stroke-opacity:1; 
stroke-linecap:round; stroke-linejoin:round;">
<g transform="rotate(-90.000000 41.1360 31.4453)">
<text x="41.1360" y="31.4453"
textLength="1.4127" font-size="1.6933" lengthAdjust="spacingAndGlyphs"
text-anchor="middle" opacity="0" stroke-opacity="0">1</text>
</g>
<g class="stroked-text"><desc>1</desc>
<path d="M40.9725 31.0823
L40.9725 31.8080
" />
<path d="M40.9725 31.4452
L39.7025 31.4452
" />
<path d="M39.7025 31.4452
L39.8840 31.5661
" />
<path d="M39.8840 31.5661
L40.0049 31.6871
" />
<path d="M40.0049 31.6871
L40.0654 31.8080
" />
</g></g>
<g style="fill:none; 
stroke:#840000; stroke-width:0.1524; stroke-opacity:1; 
stroke-linecap:round; stroke-linejoin:round;">
<path d="M43.9300 8.5853
L43.9300 3.5053
" />
</g>
<g style="fill:none; 
stroke:#A90000; stroke-width:0.1524; stroke-opacity:1; 
stroke-linecap:round; stroke-linejoin:round;">
<g transform="rotate(-90.000000 43.6760 6.0453)">
<text x="43.6760" y="6.0453"
textLength="1.4127" font-size="1.6933" lengthAdjust="spacingAndGlyphs"
text-anchor="middle" opacity="0" stroke-opacity="0">8</text>
</g>
<g class="stroked-text"><desc>8</desc>
<path d="M42.7868 6.1661
L42.7263 6.2871
" />
<path d="M42.7263 6.2871
L42.6659 6.3476
" />
<path d="M42.6659 6.3476
L42.5449 6.4080
" />
<path d="M42.5449 6.4080
L42.4844 6.4080
" />
<path d="M42.4844 6.4080
L42.3635 6.3476
" />
<path d="M42.3635 6.3476
L42.3030 6.2871
" />
<path d="M42.3030 6.2871
L42.2425 6.1661
" />
<path d="M42.2425 6.1661
L42.2425 5.9242
" />
<path d="M42.2425 5.9242
L42.3030 5.8033
" />
<path d="M42.3030 5.8033
L42.3635 5.7428
" />
<path d="M42.3635 5.7428
L42.4844 5.6823
" />
<path d="M42.4844 5.6823
L42.5449 5.6823
" />
<path d="M42.5449 5.6823
L42.6659 5.7428
" />
<path d="M42.6659 5.7428
L42.7263 5.8033
" />
<path d="M42.7263 5.8033
L42.7868 5.9242
" />
<path d="M42.7868 5.9242
L42.7868 6.1661
" />
<path d="M42.7868 6.1661
L42.8473 6.2871
" />
<path d="M42.8473 6.2871
L42.9078 6.3476
" />
<path d="M42.9078 6.3476
L43.0287 6.4080
" />
<path d="M43.0287 6.4080
L43.2706 6.4080
" />
<path d="M43.2706 6.4080
L43.3916 6.3476
" />
<path d="M43.3916 6.3476
L43.4521 6.2871
" />
<path d="M43.4521 6.2871
L43.5125 6.1661
" />
<path d="M43.5125 6.1661
L43.5125 5.9242
" />
<path d="M43.5125 5.9242
L43.4521 5.8033
" />
<path d="M43.4521 5.8033
L43.3916 5.7428
" />
<path d="M43.3916 5.7428
L43.2706 5.6823
" />
<path d="M43.2706 5.6823
L43.0287 5.6823
" />
<path d="M43.0287 5.6823
L42.9078 5.7428
" />
<path d="M42.9078 5.7428
L42.8473 5.8033
" />
<path d="M42.8473 5.8033
L42.7868 5.9242
" />
</g></g>
<g style="fill:none; 
stroke:#840000; stroke-width:0.1524; stroke-opacity:1; 
stroke-linecap:round; stroke-linejoin:round;">
<path d="M51.5500 13.6653
L56.6300 13.6653
" />
</g>
<g style="fill:none; 
stroke:#A90000; stroke-width:0.1524; stroke-opacity:1; 
stroke-linecap:round; stroke-linejoin:round;">
<text x="54.0900" y="13.4113"
textLength="1.4127" font-size="1.6933" lengthAdjust="spacingAndGlyphs"
text-anchor="middle" opacity="0" stroke-opacity="0">3</text>
<g class="stroked-text"><desc>3</desc>
<path d="M53.6667 11.9778
L54.4529 11.9778
" />
<path d="M54.4529 11.9778
L54.0295 12.4616
" />
<path d="M54.0295 12.4616
L54.2110 12.4616
" />
<path d="M54.2110 12.4616
L54.3319 12.5221
" />
<path d="M54.3319 12.5221
L54.3924 12.5826
" />
<path d="M54.3924 12.5826
L54.4529 12.7035
" />
<path d="M54.4529 12.7035
L54.4529 13.0059
" />
<path d="M54.4529 13.0059
L54.3924 13.1269
" />
<path d="M54.3924 13.1269
L54.3319 13.1874
" />
<path d="M54.3319 13.1874
L54.2110 13.2478
" />
<path d="M54.2110 13.2478
L53.8481 13.2478
" />
<path d="M53.8481 13.2478
L53.7272 13.1874
" />
<path d="M53.7272 13.1874
L53.6667 13.1269
" />
</g></g>
<g style="fill:none; 
stroke:#840000; stroke-width:0.1524; stroke-opacity:1; 
stroke-linecap:round; stroke-linejoin:round;">
<path d="M51.5500 23.8253
L56.6300 23.8253
" />
</g>
<g style="fill:none; 
stroke:#A90000; stroke-width:0.1524; stroke-opacity:1; 
stroke-linecap:round; stroke-linejoin:round;">
<text x="54.0900" y="23.5713"
textLength="1.4127" font-size="1.6933" lengthAdjust="spacingAndGlyphs"
text-anchor="middle" opacity="0" stroke-opacity="0">5</text>
<g class="stroked-text"><desc>5</desc>
<path d="M54.3924 22.1378
L53.7876 22.1378
" />
<path d="M53.7876 22.1378
L53.7272 22.7426
" />
<path d="M53.7272 22.7426
L53.7876 22.6821
" />
<path d="M53.7876 22.6821
L53.9086 22.6216
" />
<path d="M53.9086 22.6216
L54.2110 22.6216
" />
<path d="M54.2110 22.6216
L54.3319 22.6821
" />
<path d="M54.3319 22.6821
L54.3924 22.7426
" />
<path d="M54.3924 22.7426
L54.4529 22.8635
" />
<path d="M54.4529 22.8635
L54.4529 23.1659
" />
<path d="M54.4529 23.1659
L54.3924 23.2869
" />
<path d="M54.3924 23.2869
L54.3319 23.3474
" />
<path d="M54.3319 23.3474
L54.2110 23.4078
" />
<path d="M54.2110 23.4078
L53.9086 23.4078
" />
<path d="M53.9086 23.4078
L53.7876 23.3474
" />
<path d="M53.7876 23.3474
L53.7272 23.2869
" />
</g></g>
<g style="fill:none; 
stroke:#006464; stroke-width:0.1524; stroke-opacity:1; 
stroke-linecap:round; stroke-linejoin:round;">
<text x="16.0020" y="-2.1590"
textLength="4.3761" font-size="1.6933" lengthAdjust="spacingAndGlyphs"
text-anchor="start" opacity="0" stroke-opacity="0">IC2?</text>
<g class="stroked-text"><desc>IC2?</desc>
<path d="M16.4045 -2.2144
L16.4045 -3.4844
" />
<path d="M17.7350 -2.3353
L17.6746 -2.2749
" />
<path d="M17.6746 -2.2749
L17.4931 -2.2144
" />
<path d="M17.4931 -2.2144
L17.3722 -2.2144
" />
<path d="M17.3722 -2.2144
L17.1908 -2.2749
" />
<path d="M17.1908 -2.2749
L17.0698 -2.3958
" />
<path d="M17.0698 -2.3958
L17.0093 -2.5168
" />
<path d="M17.0093 -2.5168
L16.9489 -2.7587
" />
<path d="M16.9489 -2.7587
L16.9489 -2.9401
" />
<path d="M16.9489 -2.9401
L17.0093 -3.1820
" />
<path d="M17.0093 -3.1820
L17.0698 -3.3029
" />
<path d="M17.0698 -3.3029
L17.1908 -3.4239
" />
<path d="M17.1908 -3.4239
L17.3722 -3.4844
" />
<path d="M17.3722 -3.4844
L17.4931 -3.4844
" />
<path d="M17.4931 -3.4844
L17.6746 -3.4239
" />
<path d="M17.6746 -3.4239
L17.7350 -3.3634
" />
<path d="M18.2189 -3.3634
L18.2793 -3.4239
" />
<path d="M18.2793 -3.4239
L18.4003 -3.4844
" />
<path d="M18.4003 -3.4844
L18.7027 -3.4844
" />
<path d="M18.7027 -3.4844
L18.8236 -3.4239
" />
<path d="M18.8236 -3.4239
L18.8841 -3.3634
" />
<path d="M18.8841 -3.3634
L18.9446 -3.2425
" />
<path d="M18.9446 -3.2425
L18.9446 -3.1215
" />
<path d="M18.9446 -3.1215
L18.8841 -2.9401
" />
<path d="M18.8841 -2.9401
L18.1584 -2.2144
" />
<path d="M18.1584 -2.2144
L18.9446 -2.2144
" />
<path d="M19.6703 -2.3353
L19.7307 -2.2749
" />
<path d="M19.7307 -2.2749
L19.6703 -2.2144
" />
<path d="M19.6703 -2.2144
L19.6098 -2.2749
" />
<path d="M19.6098 -2.2749
L19.6703 -2.3353
" />
<path d="M19.6703 -2.3353
L19.6703 -2.2144
" />
<path d="M19.4284 -3.4239
L19.5493 -3.4844
" />
<path d="M19.5493 -3.4844
L19.8517 -3.4844
" />
<path d="M19.8517 -3.4844
L19.9726 -3.4239
" />
<path d="M19.9726 -3.4239
L20.0331 -3.3029
" />
<path d="M20.0331 -3.3029
L20.0331 -3.1820
" />
<path d="M20.0331 -3.1820
L19.9726 -3.0610
" />
<path d="M19.9726 -3.0610
L19.9122 -3.0006
" />
<path d="M19.9122 -3.0006
L19.7912 -2.9401
" />
<path d="M19.7912 -2.9401
L19.7307 -2.8796
" />
<path d="M19.7307 -2.8796
L19.6703 -2.7587
" />
<path d="M19.6703 -2.7587
L19.6703 -2.6982
" />
</g></g> 
</svg>
