<?xml version="1.0" standalone="no"?>
 <!DOCTYPE svg PUBLIC "-//W3C//DTD SVG 1.1//EN" 
 "http://www.w3.org/Graphics/SVG/1.1/DTD/svg11.dtd"> 
<svg
  xmlns:svg="http://www.w3.org/2000/svg"
  xmlns="http://www.w3.org/2000/svg"
  xmlns:xlink="http://www.w3.org/1999/xlink"
  version="1.1"
  width="31.7500mm" height="6.2484mm" viewBox="0.0000 0.0000 31.7500 6.2484">
<title>SVG Image created as TB-09A.svg date 2025/04/24 09:49:05 </title>
  <desc>Image generated by Eeschema-SVG </desc>
<g style="fill:#000000; fill-opacity:1.0000;stroke:#000000; stroke-opacity:1.0000;
stroke-linecap:round; stroke-linejoin:round;"
 transform="translate(0 0) scale(1 1)">
<path style="fill:none; 
stroke:#840000; stroke-width:0.1524; stroke-opacity:1; 
stroke-linecap:round; stroke-linejoin:round;fill:none"
d="M 20.9611,4.0828
20.9611,1.5428
10.8011,1.5428
10.8011,4.0828
" /> 
</g>
<g style="fill:none; 
stroke:#840000; stroke-width:0.1524; stroke-opacity:1; 
stroke-linecap:round; stroke-linejoin:round;">
<path d="M13.3411 2.8128
L13.3411 5.3528
" />
</g>
<g style="fill:none; 
stroke:#A90000; stroke-width:0.1524; stroke-opacity:1; 
stroke-linecap:round; stroke-linejoin:round;">
<g transform="rotate(-90.000000 13.0871 4.0828)">
<text x="13.0871" y="4.0828"
textLength="1.4127" font-size="1.6933" lengthAdjust="spacingAndGlyphs"
text-anchor="middle" opacity="0" stroke-opacity="0">1</text>
</g>
<g class="stroked-text"><desc>1</desc>
<path d="M12.9236 3.7198
L12.9236 4.4455
" />
<path d="M12.9236 4.0827
L11.6536 4.0827
" />
<path d="M11.6536 4.0827
L11.8351 4.2036
" />
<path d="M11.8351 4.2036
L11.9560 4.3246
" />
<path d="M11.9560 4.3246
L12.0165 4.4455
" />
</g></g>
<g style="fill:none; 
stroke:#840000; stroke-width:0.1524; stroke-opacity:1; 
stroke-linecap:round; stroke-linejoin:round;">
<path d="M18.4211 2.8128
L18.4211 5.3528
" />
</g>
<g style="fill:none; 
stroke:#A90000; stroke-width:0.1524; stroke-opacity:1; 
stroke-linecap:round; stroke-linejoin:round;">
<g transform="rotate(-90.000000 18.1671 4.0828)">
<text x="18.1671" y="4.0828"
textLength="1.4127" font-size="1.6933" lengthAdjust="spacingAndGlyphs"
text-anchor="middle" opacity="0" stroke-opacity="0">2</text>
</g>
<g class="stroked-text"><desc>2</desc>
<path d="M16.8546 4.4455
L16.7941 4.3851
" />
<path d="M16.7941 4.3851
L16.7336 4.2641
" />
<path d="M16.7336 4.2641
L16.7336 3.9617
" />
<path d="M16.7336 3.9617
L16.7941 3.8408
" />
<path d="M16.7941 3.8408
L16.8546 3.7803
" />
<path d="M16.8546 3.7803
L16.9755 3.7198
" />
<path d="M16.9755 3.7198
L17.0965 3.7198
" />
<path d="M17.0965 3.7198
L17.2779 3.7803
" />
<path d="M17.2779 3.7803
L18.0036 4.5060
" />
<path d="M18.0036 4.5060
L18.0036 3.7198
" />
</g></g>
<g style="fill:none; 
stroke:#006464; stroke-width:0.1524; stroke-opacity:1; 
stroke-linecap:round; stroke-linejoin:round;">
<g transform="rotate(-90.000000 8.8900 1.2700)">
<text x="8.8900" y="1.9050"
textLength="3.4689" font-size="1.6933" lengthAdjust="spacingAndGlyphs"
text-anchor="middle" opacity="0" stroke-opacity="0">J1?</text>
</g>
<g class="stroked-text"><desc>J1?</desc>
<path d="M8.1995 2.2375
L9.1067 2.2375
" />
<path d="M9.1067 2.2375
L9.2881 2.2980
" />
<path d="M9.2881 2.2980
L9.4091 2.4189
" />
<path d="M9.4091 2.4189
L9.4695 2.6004
" />
<path d="M9.4695 2.6004
L9.4695 2.7213
" />
<path d="M9.4695 0.9675
L9.4695 1.6932
" />
<path d="M9.4695 1.3304
L8.1995 1.3304
" />
<path d="M8.1995 1.3304
L8.3810 1.4513
" />
<path d="M8.3810 1.4513
L8.5019 1.5723
" />
<path d="M8.5019 1.5723
L8.5624 1.6932
" />
<path d="M9.3486 0.2418
L9.4091 0.1814
" />
<path d="M9.4091 0.1814
L9.4695 0.2418
" />
<path d="M9.4695 0.2418
L9.4091 0.3023
" />
<path d="M9.4091 0.3023
L9.3486 0.2418
" />
<path d="M9.3486 0.2418
L9.4695 0.2418
" />
<path d="M8.2600 0.4837
L8.1995 0.3628
" />
<path d="M8.1995 0.3628
L8.1995 0.0604
" />
<path d="M8.1995 0.0604
L8.2600 -0.0604
" />
<path d="M8.2600 -0.0604
L8.3810 -0.1209
" />
<path d="M8.3810 -0.1209
L8.5019 -0.1209
" />
<path d="M8.5019 -0.1209
L8.6229 -0.0604
" />
<path d="M8.6229 -0.0604
L8.6833 0.0000
" />
<path d="M8.6833 0.0000
L8.7438 0.1209
" />
<path d="M8.7438 0.1209
L8.8043 0.1814
" />
<path d="M8.8043 0.1814
L8.9252 0.2418
" />
<path d="M8.9252 0.2418
L8.9857 0.2418
" />
</g></g> 
</svg>
